<?xml version="1.0" encoding="UTF-8" standalone="no"?>
<!DOCTYPE svg PUBLIC "-//W3C//DTD SVG 1.1//EN"
 "http://www.w3.org/Graphics/SVG/1.1/DTD/svg11.dtd">
<!-- Generated by graphviz version 2.38.0 (20140413.2041)
 -->
<!-- Title: controllers_diagram Pages: 1 -->
<svg width="1970pt" height="132pt"
 viewBox="0.00 0.00 1970.00 132.00" xmlns="http://www.w3.org/2000/svg" xmlns:xlink="http://www.w3.org/1999/xlink">
<g id="graph0" class="graph" transform="scale(1 1) rotate(0) translate(4 128)">
<title>controllers_diagram</title>
<polygon fill="white" stroke="none" points="-4,4 -4,-128 1966,-128 1966,4 -4,4"/>
<!-- WelcomeController -->
<g id="node1" class="node"><title>WelcomeController</title>
<path fill="none" stroke="black" d="M12,-7.5C12,-7.5 116,-7.5 116,-7.5 122,-7.5 128,-13.5 128,-19.5 128,-19.5 128,-104.5 128,-104.5 128,-110.5 122,-116.5 116,-116.5 116,-116.5 12,-116.5 12,-116.5 6,-116.5 0,-110.5 0,-104.5 0,-104.5 0,-19.5 0,-19.5 0,-13.5 6,-7.5 12,-7.5"/>
<text text-anchor="middle" x="64" y="-101.3" font-family="Times,serif" font-size="14.00">WelcomeController</text>
<polyline fill="none" stroke="black" points="0,-93.5 128,-93.5 "/>
<polyline fill="none" stroke="black" points="0,-69.5 128,-69.5 "/>
<polyline fill="none" stroke="black" points="0,-45.5 128,-45.5 "/>
<text text-anchor="start" x="8" y="-30.3" font-family="Times,serif" font-size="14.00">_layout</text>
<text text-anchor="start" x="8" y="-15.3" font-family="Times,serif" font-size="14.00">redirect_to_root</text>
</g>
<!-- ReferralsController -->
<g id="node2" class="node"><title>ReferralsController</title>
<path fill="none" stroke="black" d="M158,-15.5C158,-15.5 260,-15.5 260,-15.5 266,-15.5 272,-21.5 272,-27.5 272,-27.5 272,-96.5 272,-96.5 272,-102.5 266,-108.5 260,-108.5 260,-108.5 158,-108.5 158,-108.5 152,-108.5 146,-102.5 146,-96.5 146,-96.5 146,-27.5 146,-27.5 146,-21.5 152,-15.5 158,-15.5"/>
<text text-anchor="middle" x="209" y="-93.3" font-family="Times,serif" font-size="14.00">ReferralsController</text>
<polyline fill="none" stroke="black" points="146,-85.5 272,-85.5 "/>
<text text-anchor="start" x="154" y="-70.3" font-family="Times,serif" font-size="14.00">create</text>
<polyline fill="none" stroke="black" points="146,-62.5 272,-62.5 "/>
<polyline fill="none" stroke="black" points="146,-38.5 272,-38.5 "/>
<text text-anchor="start" x="154" y="-23.3" font-family="Times,serif" font-size="14.00">_layout</text>
</g>
<!-- RegistrationsController -->
<g id="node3" class="node"><title>RegistrationsController</title>
<path fill="none" stroke="black" d="M302,-8C302,-8 478,-8 478,-8 484,-8 490,-14 490,-20 490,-20 490,-104 490,-104 490,-110 484,-116 478,-116 478,-116 302,-116 302,-116 296,-116 290,-110 290,-104 290,-104 290,-20 290,-20 290,-14 296,-8 302,-8"/>
<text text-anchor="middle" x="390" y="-100.8" font-family="Times,serif" font-size="14.00">RegistrationsController</text>
<polyline fill="none" stroke="black" points="290,-93 490,-93 "/>
<polyline fill="none" stroke="black" points="290,-69 490,-69 "/>
<text text-anchor="start" x="298" y="-53.8" font-family="Times,serif" font-size="14.00">after_inactive_sign_up_path_for</text>
<text text-anchor="start" x="298" y="-38.8" font-family="Times,serif" font-size="14.00">configure_permitted_parameters</text>
<polyline fill="none" stroke="black" points="290,-31 490,-31 "/>
<text text-anchor="start" x="298" y="-15.8" font-family="Times,serif" font-size="14.00">_layout</text>
</g>
<!-- FeedbacksController -->
<g id="node4" class="node"><title>FeedbacksController</title>
<path fill="none" stroke="black" d="M520.5,-15.5C520.5,-15.5 629.5,-15.5 629.5,-15.5 635.5,-15.5 641.5,-21.5 641.5,-27.5 641.5,-27.5 641.5,-96.5 641.5,-96.5 641.5,-102.5 635.5,-108.5 629.5,-108.5 629.5,-108.5 520.5,-108.5 520.5,-108.5 514.5,-108.5 508.5,-102.5 508.5,-96.5 508.5,-96.5 508.5,-27.5 508.5,-27.5 508.5,-21.5 514.5,-15.5 520.5,-15.5"/>
<text text-anchor="middle" x="575" y="-93.3" font-family="Times,serif" font-size="14.00">FeedbacksController</text>
<polyline fill="none" stroke="black" points="508.5,-85.5 641.5,-85.5 "/>
<text text-anchor="start" x="516.5" y="-70.3" font-family="Times,serif" font-size="14.00">create</text>
<polyline fill="none" stroke="black" points="508.5,-62.5 641.5,-62.5 "/>
<polyline fill="none" stroke="black" points="508.5,-38.5 641.5,-38.5 "/>
<text text-anchor="start" x="516.5" y="-23.3" font-family="Times,serif" font-size="14.00">_layout</text>
</g>
<!-- OmniauthCallbacksController -->
<g id="node5" class="node"><title>OmniauthCallbacksController</title>
<path fill="none" stroke="black" d="M672,-15.5C672,-15.5 834,-15.5 834,-15.5 840,-15.5 846,-21.5 846,-27.5 846,-27.5 846,-96.5 846,-96.5 846,-102.5 840,-108.5 834,-108.5 834,-108.5 672,-108.5 672,-108.5 666,-108.5 660,-102.5 660,-96.5 660,-96.5 660,-27.5 660,-27.5 660,-21.5 666,-15.5 672,-15.5"/>
<text text-anchor="middle" x="753" y="-93.3" font-family="Times,serif" font-size="14.00">OmniauthCallbacksController</text>
<polyline fill="none" stroke="black" points="660,-85.5 846,-85.5 "/>
<text text-anchor="start" x="668" y="-70.3" font-family="Times,serif" font-size="14.00">facebook</text>
<polyline fill="none" stroke="black" points="660,-62.5 846,-62.5 "/>
<polyline fill="none" stroke="black" points="660,-38.5 846,-38.5 "/>
<text text-anchor="start" x="668" y="-23.3" font-family="Times,serif" font-size="14.00">_layout</text>
</g>
<!-- PagesController -->
<g id="node6" class="node"><title>PagesController</title>
<path fill="none" stroke="black" d="M876,-15.5C876,-15.5 958,-15.5 958,-15.5 964,-15.5 970,-21.5 970,-27.5 970,-27.5 970,-96.5 970,-96.5 970,-102.5 964,-108.5 958,-108.5 958,-108.5 876,-108.5 876,-108.5 870,-108.5 864,-102.5 864,-96.5 864,-96.5 864,-27.5 864,-27.5 864,-21.5 870,-15.5 876,-15.5"/>
<text text-anchor="middle" x="917" y="-93.3" font-family="Times,serif" font-size="14.00">PagesController</text>
<polyline fill="none" stroke="black" points="864,-85.5 970,-85.5 "/>
<text text-anchor="start" x="872" y="-70.3" font-family="Times,serif" font-size="14.00">show</text>
<polyline fill="none" stroke="black" points="864,-62.5 970,-62.5 "/>
<polyline fill="none" stroke="black" points="864,-38.5 970,-38.5 "/>
<text text-anchor="start" x="872" y="-23.3" font-family="Times,serif" font-size="14.00">_layout</text>
</g>
<!-- ServiceProvidersController -->
<g id="node7" class="node"><title>ServiceProvidersController</title>
<path fill="none" stroke="black" d="M1000,-15.5C1000,-15.5 1146,-15.5 1146,-15.5 1152,-15.5 1158,-21.5 1158,-27.5 1158,-27.5 1158,-96.5 1158,-96.5 1158,-102.5 1152,-108.5 1146,-108.5 1146,-108.5 1000,-108.5 1000,-108.5 994,-108.5 988,-102.5 988,-96.5 988,-96.5 988,-27.5 988,-27.5 988,-21.5 994,-15.5 1000,-15.5"/>
<text text-anchor="middle" x="1073" y="-93.3" font-family="Times,serif" font-size="14.00">ServiceProvidersController</text>
<polyline fill="none" stroke="black" points="988,-85.5 1158,-85.5 "/>
<text text-anchor="start" x="996" y="-70.3" font-family="Times,serif" font-size="14.00">show</text>
<polyline fill="none" stroke="black" points="988,-62.5 1158,-62.5 "/>
<polyline fill="none" stroke="black" points="988,-38.5 1158,-38.5 "/>
<text text-anchor="start" x="996" y="-23.3" font-family="Times,serif" font-size="14.00">_layout</text>
</g>
<!-- ApplicationController -->
<g id="node8" class="node"><title>ApplicationController</title>
<path fill="none" stroke="black" d="M1188.5,-0.5C1188.5,-0.5 1309.5,-0.5 1309.5,-0.5 1315.5,-0.5 1321.5,-6.5 1321.5,-12.5 1321.5,-12.5 1321.5,-111.5 1321.5,-111.5 1321.5,-117.5 1315.5,-123.5 1309.5,-123.5 1309.5,-123.5 1188.5,-123.5 1188.5,-123.5 1182.5,-123.5 1176.5,-117.5 1176.5,-111.5 1176.5,-111.5 1176.5,-12.5 1176.5,-12.5 1176.5,-6.5 1182.5,-0.5 1188.5,-0.5"/>
<text text-anchor="middle" x="1249" y="-108.3" font-family="Times,serif" font-size="14.00">ApplicationController</text>
<polyline fill="none" stroke="black" points="1176.5,-100.5 1321.5,-100.5 "/>
<polyline fill="none" stroke="black" points="1176.5,-76.5 1321.5,-76.5 "/>
<text text-anchor="start" x="1184.5" y="-61.3" font-family="Times,serif" font-size="14.00">after_sign_in_path_for</text>
<text text-anchor="start" x="1184.5" y="-46.3" font-family="Times,serif" font-size="14.00">layout_by_resource</text>
<text text-anchor="start" x="1184.5" y="-31.3" font-family="Times,serif" font-size="14.00">set_locale</text>
<polyline fill="none" stroke="black" points="1176.5,-23.5 1321.5,-23.5 "/>
<text text-anchor="start" x="1184.5" y="-8.3" font-family="Times,serif" font-size="14.00">_layout</text>
</g>
<!-- UsersController -->
<g id="node9" class="node"><title>UsersController</title>
<path fill="none" stroke="black" d="M1352,-0.5C1352,-0.5 1518,-0.5 1518,-0.5 1524,-0.5 1530,-6.5 1530,-12.5 1530,-12.5 1530,-111.5 1530,-111.5 1530,-117.5 1524,-123.5 1518,-123.5 1518,-123.5 1352,-123.5 1352,-123.5 1346,-123.5 1340,-117.5 1340,-111.5 1340,-111.5 1340,-12.5 1340,-12.5 1340,-6.5 1346,-0.5 1352,-0.5"/>
<text text-anchor="middle" x="1435" y="-108.3" font-family="Times,serif" font-size="14.00">UsersController</text>
<polyline fill="none" stroke="black" points="1340,-100.5 1530,-100.5 "/>
<text text-anchor="start" x="1348" y="-85.3" font-family="Times,serif" font-size="14.00">edit</text>
<text text-anchor="start" x="1348" y="-70.3" font-family="Times,serif" font-size="14.00">update</text>
<polyline fill="none" stroke="black" points="1340,-62.5 1530,-62.5 "/>
<polyline fill="none" stroke="black" points="1340,-38.5 1530,-38.5 "/>
<text text-anchor="start" x="1348" y="-23.3" font-family="Times,serif" font-size="14.00">_layout</text>
<text text-anchor="start" x="1348" y="-8.3" font-family="Times,serif" font-size="14.00">redirect_to_recent_transaction</text>
</g>
<!-- UserRecentTransactionsController -->
<g id="node10" class="node"><title>UserRecentTransactionsController</title>
<path fill="none" stroke="black" d="M1560.5,-8C1560.5,-8 1749.5,-8 1749.5,-8 1755.5,-8 1761.5,-14 1761.5,-20 1761.5,-20 1761.5,-104 1761.5,-104 1761.5,-110 1755.5,-116 1749.5,-116 1749.5,-116 1560.5,-116 1560.5,-116 1554.5,-116 1548.5,-110 1548.5,-104 1548.5,-104 1548.5,-20 1548.5,-20 1548.5,-14 1554.5,-8 1560.5,-8"/>
<text text-anchor="middle" x="1655" y="-100.8" font-family="Times,serif" font-size="14.00">UserRecentTransactionsController</text>
<polyline fill="none" stroke="black" points="1548.5,-93 1761.5,-93 "/>
<text text-anchor="start" x="1556.5" y="-77.8" font-family="Times,serif" font-size="14.00">create</text>
<text text-anchor="start" x="1556.5" y="-62.8" font-family="Times,serif" font-size="14.00">new</text>
<polyline fill="none" stroke="black" points="1548.5,-55 1761.5,-55 "/>
<polyline fill="none" stroke="black" points="1548.5,-31 1761.5,-31 "/>
<text text-anchor="start" x="1556.5" y="-15.8" font-family="Times,serif" font-size="14.00">_layout</text>
</g>
<!-- UserNextTransfersController -->
<g id="node11" class="node"><title>UserNextTransfersController</title>
<path fill="none" stroke="black" d="M1792,-0.5C1792,-0.5 1950,-0.5 1950,-0.5 1956,-0.5 1962,-6.5 1962,-12.5 1962,-12.5 1962,-111.5 1962,-111.5 1962,-117.5 1956,-123.5 1950,-123.5 1950,-123.5 1792,-123.5 1792,-123.5 1786,-123.5 1780,-117.5 1780,-111.5 1780,-111.5 1780,-12.5 1780,-12.5 1780,-6.5 1786,-0.5 1792,-0.5"/>
<text text-anchor="middle" x="1871" y="-108.3" font-family="Times,serif" font-size="14.00">UserNextTransfersController</text>
<polyline fill="none" stroke="black" points="1780,-100.5 1962,-100.5 "/>
<text text-anchor="start" x="1788" y="-85.3" font-family="Times,serif" font-size="14.00">create</text>
<text text-anchor="start" x="1788" y="-70.3" font-family="Times,serif" font-size="14.00">new</text>
<text text-anchor="start" x="1788" y="-55.3" font-family="Times,serif" font-size="14.00">show</text>
<polyline fill="none" stroke="black" points="1780,-47.5 1962,-47.5 "/>
<polyline fill="none" stroke="black" points="1780,-23.5 1962,-23.5 "/>
<text text-anchor="start" x="1788" y="-8.3" font-family="Times,serif" font-size="14.00">_layout</text>
</g>
</g>
</svg>
