<?xml version="1.0" encoding="UTF-8" standalone="no"?>
<!DOCTYPE svg PUBLIC "-//W3C//DTD SVG 1.1//EN"
 "http://www.w3.org/Graphics/SVG/1.1/DTD/svg11.dtd">
<!-- Generated by graphviz version 2.38.0 (20140413.2041)
 -->
<!-- Title: controllers_diagram Pages: 1 -->
<svg width="2098pt" height="147pt"
 viewBox="0.00 0.00 2098.00 147.00" xmlns="http://www.w3.org/2000/svg" xmlns:xlink="http://www.w3.org/1999/xlink">
<g id="graph0" class="graph" transform="scale(1 1) rotate(0) translate(4 143)">
<title>controllers_diagram</title>
<polygon fill="white" stroke="none" points="-4,4 -4,-143 2094,-143 2094,4 -4,4"/>
<!-- FeedbacksController -->
<g id="node1" class="node"><title>FeedbacksController</title>
<path fill="none" stroke="black" d="M12,-23C12,-23 121,-23 121,-23 127,-23 133,-29 133,-35 133,-35 133,-104 133,-104 133,-110 127,-116 121,-116 121,-116 12,-116 12,-116 6,-116 0,-110 0,-104 0,-104 0,-35 0,-35 0,-29 6,-23 12,-23"/>
<text text-anchor="middle" x="66.5" y="-100.8" font-family="Times,serif" font-size="14.00">FeedbacksController</text>
<polyline fill="none" stroke="black" points="0,-93 133,-93 "/>
<text text-anchor="start" x="8" y="-77.8" font-family="Times,serif" font-size="14.00">create</text>
<polyline fill="none" stroke="black" points="0,-70 133,-70 "/>
<polyline fill="none" stroke="black" points="0,-46 133,-46 "/>
<text text-anchor="start" x="8" y="-30.8" font-family="Times,serif" font-size="14.00">_layout</text>
</g>
<!-- OmniauthCallbacksController -->
<g id="node2" class="node"><title>OmniauthCallbacksController</title>
<path fill="none" stroke="black" d="M163.5,-23C163.5,-23 325.5,-23 325.5,-23 331.5,-23 337.5,-29 337.5,-35 337.5,-35 337.5,-104 337.5,-104 337.5,-110 331.5,-116 325.5,-116 325.5,-116 163.5,-116 163.5,-116 157.5,-116 151.5,-110 151.5,-104 151.5,-104 151.5,-35 151.5,-35 151.5,-29 157.5,-23 163.5,-23"/>
<text text-anchor="middle" x="244.5" y="-100.8" font-family="Times,serif" font-size="14.00">OmniauthCallbacksController</text>
<polyline fill="none" stroke="black" points="151.5,-93 337.5,-93 "/>
<text text-anchor="start" x="159.5" y="-77.8" font-family="Times,serif" font-size="14.00">facebook</text>
<polyline fill="none" stroke="black" points="151.5,-70 337.5,-70 "/>
<polyline fill="none" stroke="black" points="151.5,-46 337.5,-46 "/>
<text text-anchor="start" x="159.5" y="-30.8" font-family="Times,serif" font-size="14.00">_layout</text>
</g>
<!-- PagesController -->
<g id="node3" class="node"><title>PagesController</title>
<path fill="none" stroke="black" d="M367.5,-23C367.5,-23 449.5,-23 449.5,-23 455.5,-23 461.5,-29 461.5,-35 461.5,-35 461.5,-104 461.5,-104 461.5,-110 455.5,-116 449.5,-116 449.5,-116 367.5,-116 367.5,-116 361.5,-116 355.5,-110 355.5,-104 355.5,-104 355.5,-35 355.5,-35 355.5,-29 361.5,-23 367.5,-23"/>
<text text-anchor="middle" x="408.5" y="-100.8" font-family="Times,serif" font-size="14.00">PagesController</text>
<polyline fill="none" stroke="black" points="355.5,-93 461.5,-93 "/>
<text text-anchor="start" x="363.5" y="-77.8" font-family="Times,serif" font-size="14.00">show</text>
<polyline fill="none" stroke="black" points="355.5,-70 461.5,-70 "/>
<polyline fill="none" stroke="black" points="355.5,-46 461.5,-46 "/>
<text text-anchor="start" x="363.5" y="-30.8" font-family="Times,serif" font-size="14.00">_layout</text>
</g>
<!-- ServiceProvidersController -->
<g id="node4" class="node"><title>ServiceProvidersController</title>
<path fill="none" stroke="black" d="M491.5,-23C491.5,-23 637.5,-23 637.5,-23 643.5,-23 649.5,-29 649.5,-35 649.5,-35 649.5,-104 649.5,-104 649.5,-110 643.5,-116 637.5,-116 637.5,-116 491.5,-116 491.5,-116 485.5,-116 479.5,-110 479.5,-104 479.5,-104 479.5,-35 479.5,-35 479.5,-29 485.5,-23 491.5,-23"/>
<text text-anchor="middle" x="564.5" y="-100.8" font-family="Times,serif" font-size="14.00">ServiceProvidersController</text>
<polyline fill="none" stroke="black" points="479.5,-93 649.5,-93 "/>
<text text-anchor="start" x="487.5" y="-77.8" font-family="Times,serif" font-size="14.00">show</text>
<polyline fill="none" stroke="black" points="479.5,-70 649.5,-70 "/>
<polyline fill="none" stroke="black" points="479.5,-46 649.5,-46 "/>
<text text-anchor="start" x="487.5" y="-30.8" font-family="Times,serif" font-size="14.00">_layout</text>
</g>
<!-- WelcomeController -->
<g id="node5" class="node"><title>WelcomeController</title>
<path fill="none" stroke="black" d="M679.5,-15.5C679.5,-15.5 783.5,-15.5 783.5,-15.5 789.5,-15.5 795.5,-21.5 795.5,-27.5 795.5,-27.5 795.5,-111.5 795.5,-111.5 795.5,-117.5 789.5,-123.5 783.5,-123.5 783.5,-123.5 679.5,-123.5 679.5,-123.5 673.5,-123.5 667.5,-117.5 667.5,-111.5 667.5,-111.5 667.5,-27.5 667.5,-27.5 667.5,-21.5 673.5,-15.5 679.5,-15.5"/>
<text text-anchor="middle" x="731.5" y="-108.3" font-family="Times,serif" font-size="14.00">WelcomeController</text>
<polyline fill="none" stroke="black" points="667.5,-100.5 795.5,-100.5 "/>
<text text-anchor="start" x="675.5" y="-85.3" font-family="Times,serif" font-size="14.00">index</text>
<polyline fill="none" stroke="black" points="667.5,-77.5 795.5,-77.5 "/>
<polyline fill="none" stroke="black" points="667.5,-53.5 795.5,-53.5 "/>
<text text-anchor="start" x="675.5" y="-38.3" font-family="Times,serif" font-size="14.00">_layout</text>
<text text-anchor="start" x="675.5" y="-23.3" font-family="Times,serif" font-size="14.00">redirect_to_root</text>
</g>
<!-- ReferralsController -->
<g id="node6" class="node"><title>ReferralsController</title>
<path fill="none" stroke="black" d="M825.5,-23C825.5,-23 927.5,-23 927.5,-23 933.5,-23 939.5,-29 939.5,-35 939.5,-35 939.5,-104 939.5,-104 939.5,-110 933.5,-116 927.5,-116 927.5,-116 825.5,-116 825.5,-116 819.5,-116 813.5,-110 813.5,-104 813.5,-104 813.5,-35 813.5,-35 813.5,-29 819.5,-23 825.5,-23"/>
<text text-anchor="middle" x="876.5" y="-100.8" font-family="Times,serif" font-size="14.00">ReferralsController</text>
<polyline fill="none" stroke="black" points="813.5,-93 939.5,-93 "/>
<text text-anchor="start" x="821.5" y="-77.8" font-family="Times,serif" font-size="14.00">create</text>
<polyline fill="none" stroke="black" points="813.5,-70 939.5,-70 "/>
<polyline fill="none" stroke="black" points="813.5,-46 939.5,-46 "/>
<text text-anchor="start" x="821.5" y="-30.8" font-family="Times,serif" font-size="14.00">_layout</text>
</g>
<!-- ConfirmationsController -->
<g id="node7" class="node"><title>ConfirmationsController</title>
<path fill="none" stroke="black" d="M969.5,-1C969.5,-1 1139.5,-1 1139.5,-1 1145.5,-1 1151.5,-7 1151.5,-13 1151.5,-13 1151.5,-126 1151.5,-126 1151.5,-132 1145.5,-138 1139.5,-138 1139.5,-138 969.5,-138 969.5,-138 963.5,-138 957.5,-132 957.5,-126 957.5,-126 957.5,-13 957.5,-13 957.5,-7 963.5,-1 969.5,-1"/>
<text text-anchor="middle" x="1054.5" y="-122.8" font-family="Times,serif" font-size="14.00">ConfirmationsController</text>
<polyline fill="none" stroke="black" points="957.5,-115 1151.5,-115 "/>
<text text-anchor="start" x="965.5" y="-99.8" font-family="Times,serif" font-size="14.00">show</text>
<text text-anchor="start" x="965.5" y="-84.8" font-family="Times,serif" font-size="14.00">update</text>
<polyline fill="none" stroke="black" points="957.5,-77 1151.5,-77 "/>
<text text-anchor="start" x="965.5" y="-61.8" font-family="Times,serif" font-size="14.00">do_confirm</text>
<text text-anchor="start" x="965.5" y="-46.8" font-family="Times,serif" font-size="14.00">do_show</text>
<text text-anchor="start" x="965.5" y="-31.8" font-family="Times,serif" font-size="14.00">with_unconfirmed_confirmable</text>
<polyline fill="none" stroke="black" points="957.5,-24 1151.5,-24 "/>
<text text-anchor="start" x="965.5" y="-8.8" font-family="Times,serif" font-size="14.00">_layout</text>
</g>
<!-- ApplicationController -->
<g id="node8" class="node"><title>ApplicationController</title>
<path fill="none" stroke="black" d="M1182,-0.5C1182,-0.5 1303,-0.5 1303,-0.5 1309,-0.5 1315,-6.5 1315,-12.5 1315,-12.5 1315,-126.5 1315,-126.5 1315,-132.5 1309,-138.5 1303,-138.5 1303,-138.5 1182,-138.5 1182,-138.5 1176,-138.5 1170,-132.5 1170,-126.5 1170,-126.5 1170,-12.5 1170,-12.5 1170,-6.5 1176,-0.5 1182,-0.5"/>
<text text-anchor="middle" x="1242.5" y="-123.3" font-family="Times,serif" font-size="14.00">ApplicationController</text>
<polyline fill="none" stroke="black" points="1170,-115.5 1315,-115.5 "/>
<polyline fill="none" stroke="black" points="1170,-91.5 1315,-91.5 "/>
<text text-anchor="start" x="1178" y="-76.3" font-family="Times,serif" font-size="14.00">after_sign_in_path_for</text>
<text text-anchor="start" x="1178" y="-61.3" font-family="Times,serif" font-size="14.00">set_locale</text>
<text text-anchor="start" x="1178" y="-46.3" font-family="Times,serif" font-size="14.00">set_prefered_currency</text>
<text text-anchor="start" x="1178" y="-31.3" font-family="Times,serif" font-size="14.00">track_input_error</text>
<polyline fill="none" stroke="black" points="1170,-23.5 1315,-23.5 "/>
<text text-anchor="start" x="1178" y="-8.3" font-family="Times,serif" font-size="14.00">_layout</text>
</g>
<!-- RegistrationsController -->
<g id="node9" class="node"><title>RegistrationsController</title>
<path fill="none" stroke="black" d="M1345.5,-8C1345.5,-8 1521.5,-8 1521.5,-8 1527.5,-8 1533.5,-14 1533.5,-20 1533.5,-20 1533.5,-119 1533.5,-119 1533.5,-125 1527.5,-131 1521.5,-131 1521.5,-131 1345.5,-131 1345.5,-131 1339.5,-131 1333.5,-125 1333.5,-119 1333.5,-119 1333.5,-20 1333.5,-20 1333.5,-14 1339.5,-8 1345.5,-8"/>
<text text-anchor="middle" x="1433.5" y="-115.8" font-family="Times,serif" font-size="14.00">RegistrationsController</text>
<polyline fill="none" stroke="black" points="1333.5,-108 1533.5,-108 "/>
<polyline fill="none" stroke="black" points="1333.5,-84 1533.5,-84 "/>
<text text-anchor="start" x="1341.5" y="-68.8" font-family="Times,serif" font-size="14.00">after_inactive_sign_up_path_for</text>
<text text-anchor="start" x="1341.5" y="-53.8" font-family="Times,serif" font-size="14.00">configure_permitted_parameters</text>
<text text-anchor="start" x="1341.5" y="-38.8" font-family="Times,serif" font-size="14.00">set_money_destination</text>
<polyline fill="none" stroke="black" points="1333.5,-31 1533.5,-31 "/>
<text text-anchor="start" x="1341.5" y="-15.8" font-family="Times,serif" font-size="14.00">_layout</text>
</g>
<!-- UserNextTransfersController -->
<g id="node10" class="node"><title>UserNextTransfersController</title>
<path fill="none" stroke="black" d="M1563.5,-8.5C1563.5,-8.5 1721.5,-8.5 1721.5,-8.5 1727.5,-8.5 1733.5,-14.5 1733.5,-20.5 1733.5,-20.5 1733.5,-118.5 1733.5,-118.5 1733.5,-124.5 1727.5,-130.5 1721.5,-130.5 1721.5,-130.5 1563.5,-130.5 1563.5,-130.5 1557.5,-130.5 1551.5,-124.5 1551.5,-118.5 1551.5,-118.5 1551.5,-20.5 1551.5,-20.5 1551.5,-14.5 1557.5,-8.5 1563.5,-8.5"/>
<text text-anchor="middle" x="1642.5" y="-115.3" font-family="Times,serif" font-size="14.00">UserNextTransfersController</text>
<polyline fill="none" stroke="black" points="1551.5,-107.5 1733.5,-107.5 "/>
<text text-anchor="start" x="1559.5" y="-92.3" font-family="Times,serif" font-size="14.00">create</text>
<text text-anchor="start" x="1559.5" y="-77.3" font-family="Times,serif" font-size="14.00">new</text>
<text text-anchor="start" x="1559.5" y="-62.3" font-family="Times,serif" font-size="14.00">show</text>
<polyline fill="none" stroke="black" points="1551.5,-54.5 1733.5,-54.5 "/>
<text text-anchor="start" x="1559.5" y="-39.3" font-family="Times,serif" font-size="14.00">permited_params</text>
<polyline fill="none" stroke="black" points="1551.5,-31.5 1733.5,-31.5 "/>
<text text-anchor="start" x="1559.5" y="-16.3" font-family="Times,serif" font-size="14.00">_layout</text>
</g>
<!-- UserRecentTransactionsController -->
<g id="node11" class="node"><title>UserRecentTransactionsController</title>
<path fill="none" stroke="black" d="M1764,-16C1764,-16 1953,-16 1953,-16 1959,-16 1965,-22 1965,-28 1965,-28 1965,-111 1965,-111 1965,-117 1959,-123 1953,-123 1953,-123 1764,-123 1764,-123 1758,-123 1752,-117 1752,-111 1752,-111 1752,-28 1752,-28 1752,-22 1758,-16 1764,-16"/>
<text text-anchor="middle" x="1858.5" y="-107.8" font-family="Times,serif" font-size="14.00">UserRecentTransactionsController</text>
<polyline fill="none" stroke="black" points="1752,-100 1965,-100 "/>
<text text-anchor="start" x="1760" y="-84.8" font-family="Times,serif" font-size="14.00">create</text>
<text text-anchor="start" x="1760" y="-69.8" font-family="Times,serif" font-size="14.00">new</text>
<polyline fill="none" stroke="black" points="1752,-62 1965,-62 "/>
<text text-anchor="start" x="1760" y="-46.8" font-family="Times,serif" font-size="14.00">set_service_providers</text>
<polyline fill="none" stroke="black" points="1752,-39 1965,-39 "/>
<text text-anchor="start" x="1760" y="-23.8" font-family="Times,serif" font-size="14.00">_layout</text>
</g>
<!-- UsersController -->
<g id="node12" class="node"><title>UsersController</title>
<path fill="none" stroke="black" d="M1995,-15.5C1995,-15.5 2078,-15.5 2078,-15.5 2084,-15.5 2090,-21.5 2090,-27.5 2090,-27.5 2090,-111.5 2090,-111.5 2090,-117.5 2084,-123.5 2078,-123.5 2078,-123.5 1995,-123.5 1995,-123.5 1989,-123.5 1983,-117.5 1983,-111.5 1983,-111.5 1983,-27.5 1983,-27.5 1983,-21.5 1989,-15.5 1995,-15.5"/>
<text text-anchor="middle" x="2036.5" y="-108.3" font-family="Times,serif" font-size="14.00">UsersController</text>
<polyline fill="none" stroke="black" points="1983,-100.5 2090,-100.5 "/>
<text text-anchor="start" x="1991" y="-85.3" font-family="Times,serif" font-size="14.00">edit</text>
<text text-anchor="start" x="1991" y="-70.3" font-family="Times,serif" font-size="14.00">update</text>
<polyline fill="none" stroke="black" points="1983,-62.5 2090,-62.5 "/>
<polyline fill="none" stroke="black" points="1983,-38.5 2090,-38.5 "/>
<text text-anchor="start" x="1991" y="-23.3" font-family="Times,serif" font-size="14.00">_layout</text>
</g>
</g>
</svg>
