<?xml version="1.0" encoding="UTF-8" standalone="no"?>
<!DOCTYPE svg PUBLIC "-//W3C//DTD SVG 1.1//EN"
 "http://www.w3.org/Graphics/SVG/1.1/DTD/svg11.dtd">
<!-- Generated by graphviz version 2.38.0 (20140413.2041)
 -->
<!-- Title: models_diagram Pages: 1 -->
<svg width="1561pt" height="856pt"
 viewBox="0.00 0.00 1560.50 856.00" xmlns="http://www.w3.org/2000/svg" xmlns:xlink="http://www.w3.org/1999/xlink">
<g id="graph0" class="graph" transform="scale(1 1) rotate(0) translate(4 852)">
<title>models_diagram</title>
<polygon fill="white" stroke="none" points="-4,4 -4,-852 1556.5,-852 1556.5,4 -4,4"/>
<!-- Admin -->
<g id="node1" class="node"><title>Admin</title>
<path fill="none" stroke="black" d="M12,-539C12,-539 182,-539 182,-539 188,-539 194,-545 194,-551 194,-551 194,-723 194,-723 194,-729 188,-735 182,-735 182,-735 12,-735 12,-735 6,-735 0,-729 0,-723 0,-723 0,-551 0,-551 0,-545 6,-539 12,-539"/>
<text text-anchor="middle" x="97" y="-719.8" font-family="Times,serif" font-size="14.00">Admin</text>
<polyline fill="none" stroke="black" points="0,-712 194,-712 "/>
<text text-anchor="start" x="8" y="-696.8" font-family="Times,serif" font-size="14.00">id :integer</text>
<text text-anchor="start" x="8" y="-681.8" font-family="Times,serif" font-size="14.00">email :string</text>
<text text-anchor="start" x="8" y="-666.8" font-family="Times,serif" font-size="14.00">encrypted_password :string</text>
<text text-anchor="start" x="8" y="-651.8" font-family="Times,serif" font-size="14.00">remember_created_at :datetime</text>
<text text-anchor="start" x="8" y="-636.8" font-family="Times,serif" font-size="14.00">sign_in_count :integer</text>
<text text-anchor="start" x="8" y="-621.8" font-family="Times,serif" font-size="14.00">current_sign_in_at :datetime</text>
<text text-anchor="start" x="8" y="-606.8" font-family="Times,serif" font-size="14.00">last_sign_in_at :datetime</text>
<text text-anchor="start" x="8" y="-591.8" font-family="Times,serif" font-size="14.00">current_sign_in_ip :inet</text>
<text text-anchor="start" x="8" y="-576.8" font-family="Times,serif" font-size="14.00">last_sign_in_ip :inet</text>
<text text-anchor="start" x="8" y="-561.8" font-family="Times,serif" font-size="14.00">created_at :datetime</text>
<text text-anchor="start" x="8" y="-546.8" font-family="Times,serif" font-size="14.00">updated_at :datetime</text>
</g>
<!-- User::NextTransfer -->
<g id="node2" class="node"><title>User::NextTransfer</title>
<path fill="none" stroke="black" d="M224,-554C224,-554 468,-554 468,-554 474,-554 480,-560 480,-566 480,-566 480,-708 480,-708 480,-714 474,-720 468,-720 468,-720 224,-720 224,-720 218,-720 212,-714 212,-708 212,-708 212,-566 212,-566 212,-560 218,-554 224,-554"/>
<text text-anchor="middle" x="346" y="-704.8" font-family="Times,serif" font-size="14.00">User::NextTransfer</text>
<polyline fill="none" stroke="black" points="212,-697 480,-697 "/>
<text text-anchor="start" x="220" y="-681.8" font-family="Times,serif" font-size="14.00">id :integer</text>
<text text-anchor="start" x="220" y="-666.8" font-family="Times,serif" font-size="14.00">user_id :integer</text>
<text text-anchor="start" x="220" y="-651.8" font-family="Times,serif" font-size="14.00">amount_send_cents :integer</text>
<text text-anchor="start" x="220" y="-636.8" font-family="Times,serif" font-size="14.00">amount_receive_cents :integer</text>
<text text-anchor="start" x="220" y="-621.8" font-family="Times,serif" font-size="14.00">receive_currency :string</text>
<text text-anchor="start" x="220" y="-606.8" font-family="Times,serif" font-size="14.00">originating_source_of_funds_id :integer</text>
<text text-anchor="start" x="220" y="-591.8" font-family="Times,serif" font-size="14.00">destination_preference_for_funds_id :integer</text>
<text text-anchor="start" x="220" y="-576.8" font-family="Times,serif" font-size="14.00">created_at :datetime</text>
<text text-anchor="start" x="220" y="-561.8" font-family="Times,serif" font-size="14.00">updated_at :datetime</text>
</g>
<!-- User::RecentTransaction -->
<g id="node3" class="node"><title>User::RecentTransaction</title>
<path fill="none" stroke="black" d="M321,-73.5C321,-73.5 565,-73.5 565,-73.5 571,-73.5 577,-79.5 577,-85.5 577,-85.5 577,-362.5 577,-362.5 577,-368.5 571,-374.5 565,-374.5 565,-374.5 321,-374.5 321,-374.5 315,-374.5 309,-368.5 309,-362.5 309,-362.5 309,-85.5 309,-85.5 309,-79.5 315,-73.5 321,-73.5"/>
<text text-anchor="middle" x="443" y="-359.3" font-family="Times,serif" font-size="14.00">User::RecentTransaction</text>
<polyline fill="none" stroke="black" points="309,-351.5 577,-351.5 "/>
<text text-anchor="start" x="317" y="-336.3" font-family="Times,serif" font-size="14.00">id :integer</text>
<text text-anchor="start" x="317" y="-321.3" font-family="Times,serif" font-size="14.00">user_id :integer</text>
<text text-anchor="start" x="317" y="-306.3" font-family="Times,serif" font-size="14.00">date :date</text>
<text text-anchor="start" x="317" y="-291.3" font-family="Times,serif" font-size="14.00">amount_sent_cents :integer</text>
<text text-anchor="start" x="317" y="-276.3" font-family="Times,serif" font-size="14.00">amount_received_cents :integer</text>
<text text-anchor="start" x="317" y="-261.3" font-family="Times,serif" font-size="14.00">originating_source_of_funds_id :integer</text>
<text text-anchor="start" x="317" y="-246.3" font-family="Times,serif" font-size="14.00">service_provider_id :integer</text>
<text text-anchor="start" x="317" y="-231.3" font-family="Times,serif" font-size="14.00">destination_preference_for_funds_id :integer</text>
<text text-anchor="start" x="317" y="-216.3" font-family="Times,serif" font-size="14.00">fees_for_receiving :string</text>
<text text-anchor="start" x="317" y="-201.3" font-family="Times,serif" font-size="14.00">send_to_receive_duration :integer</text>
<text text-anchor="start" x="317" y="-186.3" font-family="Times,serif" font-size="14.00">documentation_requirements :string</text>
<text text-anchor="start" x="317" y="-171.3" font-family="Times,serif" font-size="14.00">promotion :string</text>
<text text-anchor="start" x="317" y="-156.3" font-family="Times,serif" font-size="14.00">service_quality :integer</text>
<text text-anchor="start" x="317" y="-141.3" font-family="Times,serif" font-size="14.00">comments :text</text>
<text text-anchor="start" x="317" y="-126.3" font-family="Times,serif" font-size="14.00">created_at :datetime</text>
<text text-anchor="start" x="317" y="-111.3" font-family="Times,serif" font-size="14.00">updated_at :datetime</text>
<text text-anchor="start" x="317" y="-96.3" font-family="Times,serif" font-size="14.00">currency :string</text>
<text text-anchor="start" x="317" y="-81.3" font-family="Times,serif" font-size="14.00">fees_for_sending_cents :integer</text>
</g>
<!-- User::Feedback -->
<g id="node11" class="node"><title>User::Feedback</title>
<ellipse fill="none" stroke="black" cx="443" cy="-18" rx="65.7887" ry="18"/>
<text text-anchor="middle" x="443" y="-14.3" font-family="Times,serif" font-size="14.00">User::Feedback</text>
</g>
<!-- User::RecentTransaction&#45;&gt;User::Feedback -->
<g id="edge1" class="edge"><title>User::RecentTransaction&#45;&gt;User::Feedback</title>
<path fill="none" stroke="#4a9565" d="M443,-65.0948C443,-57.6289 443,-50.7413 443,-44.6903"/>
<ellipse fill="none" stroke="#4a9565" cx="443" cy="-69.4003" rx="4" ry="4"/>
<ellipse fill="#4a9565" stroke="#4a9565" cx="443" cy="-40.4535" rx="4" ry="4"/>
</g>
<!-- Referral -->
<g id="node4" class="node"><title>Referral</title>
<path fill="none" stroke="black" d="M789,-163.5C789,-163.5 897,-163.5 897,-163.5 903,-163.5 909,-169.5 909,-175.5 909,-175.5 909,-272.5 909,-272.5 909,-278.5 903,-284.5 897,-284.5 897,-284.5 789,-284.5 789,-284.5 783,-284.5 777,-278.5 777,-272.5 777,-272.5 777,-175.5 777,-175.5 777,-169.5 783,-163.5 789,-163.5"/>
<text text-anchor="middle" x="843" y="-269.3" font-family="Times,serif" font-size="14.00">Referral</text>
<polyline fill="none" stroke="black" points="777,-261.5 909,-261.5 "/>
<text text-anchor="start" x="785" y="-246.3" font-family="Times,serif" font-size="14.00">id :integer</text>
<text text-anchor="start" x="785" y="-231.3" font-family="Times,serif" font-size="14.00">user_id :integer</text>
<text text-anchor="start" x="785" y="-216.3" font-family="Times,serif" font-size="14.00">email :string</text>
<text text-anchor="start" x="785" y="-201.3" font-family="Times,serif" font-size="14.00">created_at :datetime</text>
<text text-anchor="start" x="785" y="-186.3" font-family="Times,serif" font-size="14.00">updated_at :datetime</text>
<text text-anchor="start" x="785" y="-171.3" font-family="Times,serif" font-size="14.00">comments :string</text>
</g>
<!-- User -->
<g id="node5" class="node"><title>User</title>
<path fill="none" stroke="black" d="M819,-426.5C819,-426.5 1031,-426.5 1031,-426.5 1037,-426.5 1043,-432.5 1043,-438.5 1043,-438.5 1043,-835.5 1043,-835.5 1043,-841.5 1037,-847.5 1031,-847.5 1031,-847.5 819,-847.5 819,-847.5 813,-847.5 807,-841.5 807,-835.5 807,-835.5 807,-438.5 807,-438.5 807,-432.5 813,-426.5 819,-426.5"/>
<text text-anchor="middle" x="925" y="-832.3" font-family="Times,serif" font-size="14.00">User</text>
<polyline fill="none" stroke="black" points="807,-824.5 1043,-824.5 "/>
<text text-anchor="start" x="815" y="-809.3" font-family="Times,serif" font-size="14.00">id :integer</text>
<text text-anchor="start" x="815" y="-794.3" font-family="Times,serif" font-size="14.00">email :string</text>
<text text-anchor="start" x="815" y="-779.3" font-family="Times,serif" font-size="14.00">encrypted_password :string</text>
<text text-anchor="start" x="815" y="-764.3" font-family="Times,serif" font-size="14.00">reset_password_token :string</text>
<text text-anchor="start" x="815" y="-749.3" font-family="Times,serif" font-size="14.00">reset_password_sent_at :datetime</text>
<text text-anchor="start" x="815" y="-734.3" font-family="Times,serif" font-size="14.00">remember_created_at :datetime</text>
<text text-anchor="start" x="815" y="-719.3" font-family="Times,serif" font-size="14.00">sign_in_count :integer</text>
<text text-anchor="start" x="815" y="-704.3" font-family="Times,serif" font-size="14.00">current_sign_in_at :datetime</text>
<text text-anchor="start" x="815" y="-689.3" font-family="Times,serif" font-size="14.00">last_sign_in_at :datetime</text>
<text text-anchor="start" x="815" y="-674.3" font-family="Times,serif" font-size="14.00">current_sign_in_ip :inet</text>
<text text-anchor="start" x="815" y="-659.3" font-family="Times,serif" font-size="14.00">last_sign_in_ip :inet</text>
<text text-anchor="start" x="815" y="-644.3" font-family="Times,serif" font-size="14.00">confirmation_token :string</text>
<text text-anchor="start" x="815" y="-629.3" font-family="Times,serif" font-size="14.00">confirmed_at :datetime</text>
<text text-anchor="start" x="815" y="-614.3" font-family="Times,serif" font-size="14.00">confirmation_sent_at :datetime</text>
<text text-anchor="start" x="815" y="-599.3" font-family="Times,serif" font-size="14.00">unconfirmed_email :string</text>
<text text-anchor="start" x="815" y="-584.3" font-family="Times,serif" font-size="14.00">failed_attempts :integer</text>
<text text-anchor="start" x="815" y="-569.3" font-family="Times,serif" font-size="14.00">unlock_token :string</text>
<text text-anchor="start" x="815" y="-554.3" font-family="Times,serif" font-size="14.00">locked_at :datetime</text>
<text text-anchor="start" x="815" y="-539.3" font-family="Times,serif" font-size="14.00">first_name :string</text>
<text text-anchor="start" x="815" y="-524.3" font-family="Times,serif" font-size="14.00">last_name :string</text>
<text text-anchor="start" x="815" y="-509.3" font-family="Times,serif" font-size="14.00">zipcode :string</text>
<text text-anchor="start" x="815" y="-494.3" font-family="Times,serif" font-size="14.00">money_transfer_destination_id :integer</text>
<text text-anchor="start" x="815" y="-479.3" font-family="Times,serif" font-size="14.00">created_at :datetime</text>
<text text-anchor="start" x="815" y="-464.3" font-family="Times,serif" font-size="14.00">updated_at :datetime</text>
<text text-anchor="start" x="815" y="-449.3" font-family="Times,serif" font-size="14.00">provider :string</text>
<text text-anchor="start" x="815" y="-434.3" font-family="Times,serif" font-size="14.00">uid :string</text>
</g>
<!-- User&#45;&gt;Referral -->
<g id="edge5" class="edge"><title>User&#45;&gt;Referral</title>
<path fill="none" stroke="#8928c0" d="M881.578,-418.361C872.619,-373.456 863.815,-329.326 856.884,-294.589"/>
<ellipse fill="none" stroke="#8928c0" cx="882.377" cy="-422.363" rx="4.00001" ry="4.00001"/>
<polygon fill="#8928c0" stroke="#8928c0" points="856.845,-294.392 859.301,-283.705 855.866,-289.489 854.888,-284.585 854.888,-284.585 854.888,-284.585 855.866,-289.489 850.475,-285.466 856.845,-294.392 856.845,-294.392"/>
</g>
<!-- Feedback -->
<g id="node10" class="node"><title>Feedback</title>
<path fill="none" stroke="black" d="M607.5,-141C607.5,-141 746.5,-141 746.5,-141 752.5,-141 758.5,-147 758.5,-153 758.5,-153 758.5,-295 758.5,-295 758.5,-301 752.5,-307 746.5,-307 746.5,-307 607.5,-307 607.5,-307 601.5,-307 595.5,-301 595.5,-295 595.5,-295 595.5,-153 595.5,-153 595.5,-147 601.5,-141 607.5,-141"/>
<text text-anchor="middle" x="677" y="-291.8" font-family="Times,serif" font-size="14.00">Feedback</text>
<polyline fill="none" stroke="black" points="595.5,-284 758.5,-284 "/>
<text text-anchor="start" x="603.5" y="-268.8" font-family="Times,serif" font-size="14.00">id :integer</text>
<text text-anchor="start" x="603.5" y="-253.8" font-family="Times,serif" font-size="14.00">comments :string</text>
<text text-anchor="start" x="603.5" y="-238.8" font-family="Times,serif" font-size="14.00">service_quality :integer</text>
<text text-anchor="start" x="603.5" y="-223.8" font-family="Times,serif" font-size="14.00">user_id :integer</text>
<text text-anchor="start" x="603.5" y="-208.8" font-family="Times,serif" font-size="14.00">commendable_id :integer</text>
<text text-anchor="start" x="603.5" y="-193.8" font-family="Times,serif" font-size="14.00">commendable_type :string</text>
<text text-anchor="start" x="603.5" y="-178.8" font-family="Times,serif" font-size="14.00">approved :boolean</text>
<text text-anchor="start" x="603.5" y="-163.8" font-family="Times,serif" font-size="14.00">created_at :datetime</text>
<text text-anchor="start" x="603.5" y="-148.8" font-family="Times,serif" font-size="14.00">updated_at :datetime</text>
</g>
<!-- User&#45;&gt;Feedback -->
<g id="edge4" class="edge"><title>User&#45;&gt;Feedback</title>
<path fill="none" stroke="#dc1df2" d="M802.829,-433.53C777.896,-392.211 752.865,-350.728 731.768,-315.765"/>
<ellipse fill="none" stroke="#dc1df2" cx="804.925" cy="-437.006" rx="4.00002" ry="4.00002"/>
<polygon fill="#dc1df2" stroke="#dc1df2" points="731.658,-315.583 730.345,-304.696 729.075,-311.302 726.492,-307.021 726.492,-307.021 726.492,-307.021 729.075,-311.302 722.639,-309.346 731.658,-315.583 731.658,-315.583"/>
</g>
<!-- RecentTransaction -->
<g id="node12" class="node"><title>RecentTransaction</title>
<ellipse fill="none" stroke="black" cx="1007" cy="-224" rx="79.8859" ry="18"/>
<text text-anchor="middle" x="1007" y="-220.3" font-family="Times,serif" font-size="14.00">RecentTransaction</text>
</g>
<!-- User&#45;&gt;RecentTransaction -->
<g id="edge2" class="edge"><title>User&#45;&gt;RecentTransaction</title>
<path fill="none" stroke="#fa235f" d="M968.439,-418.275C981.678,-351.919 994.577,-287.268 1001.59,-252.129"/>
<ellipse fill="none" stroke="#fa235f" cx="967.623" cy="-422.363" rx="4.00001" ry="4.00001"/>
<polygon fill="#fa235f" stroke="#fa235f" points="1001.61,-252.009 1007.98,-243.082 1002.59,-247.105 1003.57,-242.202 1003.57,-242.202 1003.57,-242.202 1002.59,-247.105 999.155,-241.321 1001.61,-252.009 1001.61,-252.009"/>
</g>
<!-- NextTransfer -->
<g id="node13" class="node"><title>NextTransfer</title>
<ellipse fill="none" stroke="black" cx="1165" cy="-224" rx="59.5901" ry="18"/>
<text text-anchor="middle" x="1165" y="-220.3" font-family="Times,serif" font-size="14.00">NextTransfer</text>
</g>
<!-- User&#45;&gt;NextTransfer -->
<g id="edge3" class="edge"><title>User&#45;&gt;NextTransfer</title>
<path fill="none" stroke="#2163ec" d="M1047.73,-433.388C1049.49,-430.903 1051.24,-428.439 1053,-426 1070.32,-401.938 1080.11,-400.027 1096,-375 1121.82,-334.347 1143.47,-282.448 1155.3,-251.573"/>
<ellipse fill="none" stroke="#2163ec" cx="1045.39" cy="-436.739" rx="4.00002" ry="4.00002"/>
<polygon fill="#2163ec" stroke="#2163ec" points="1155.4,-251.312 1163.14,-243.544 1157.16,-246.634 1158.93,-241.955 1158.93,-241.955 1158.93,-241.955 1157.16,-246.634 1154.72,-240.367 1155.4,-251.312 1155.4,-251.312"/>
</g>
<!-- RemittanceTerm -->
<g id="node6" class="node"><title>RemittanceTerm</title>
<path fill="none" stroke="black" d="M1073.5,-509C1073.5,-509 1258.5,-509 1258.5,-509 1264.5,-509 1270.5,-515 1270.5,-521 1270.5,-521 1270.5,-753 1270.5,-753 1270.5,-759 1264.5,-765 1258.5,-765 1258.5,-765 1073.5,-765 1073.5,-765 1067.5,-765 1061.5,-759 1061.5,-753 1061.5,-753 1061.5,-521 1061.5,-521 1061.5,-515 1067.5,-509 1073.5,-509"/>
<text text-anchor="middle" x="1166" y="-749.8" font-family="Times,serif" font-size="14.00">RemittanceTerm</text>
<polyline fill="none" stroke="black" points="1061.5,-742 1270.5,-742 "/>
<text text-anchor="start" x="1069.5" y="-726.8" font-family="Times,serif" font-size="14.00">id :integer</text>
<text text-anchor="start" x="1069.5" y="-711.8" font-family="Times,serif" font-size="14.00">receive_country_id :integer</text>
<text text-anchor="start" x="1069.5" y="-696.8" font-family="Times,serif" font-size="14.00">service_provider_id :integer</text>
<text text-anchor="start" x="1069.5" y="-681.8" font-family="Times,serif" font-size="14.00">send_method_id :integer</text>
<text text-anchor="start" x="1069.5" y="-666.8" font-family="Times,serif" font-size="14.00">receive_method_id :integer</text>
<text text-anchor="start" x="1069.5" y="-651.8" font-family="Times,serif" font-size="14.00">receive_currency :string</text>
<text text-anchor="start" x="1069.5" y="-636.8" font-family="Times,serif" font-size="14.00">send_amount_range_from :integer</text>
<text text-anchor="start" x="1069.5" y="-621.8" font-family="Times,serif" font-size="14.00">send_amount_range_to :integer</text>
<text text-anchor="start" x="1069.5" y="-606.8" font-family="Times,serif" font-size="14.00">fees_for_sending_cents :integer</text>
<text text-anchor="start" x="1069.5" y="-591.8" font-family="Times,serif" font-size="14.00">fees_for_sending_percent :float</text>
<text text-anchor="start" x="1069.5" y="-576.8" font-family="Times,serif" font-size="14.00">fx_markup :float</text>
<text text-anchor="start" x="1069.5" y="-561.8" font-family="Times,serif" font-size="14.00">duration :integer</text>
<text text-anchor="start" x="1069.5" y="-546.8" font-family="Times,serif" font-size="14.00">documentation :text</text>
<text text-anchor="start" x="1069.5" y="-531.8" font-family="Times,serif" font-size="14.00">promotions :string</text>
<text text-anchor="start" x="1069.5" y="-516.8" font-family="Times,serif" font-size="14.00">service_quality :integer</text>
</g>
<!-- Country -->
<g id="node7" class="node"><title>Country</title>
<path fill="none" stroke="black" d="M1301,-599C1301,-599 1413,-599 1413,-599 1419,-599 1425,-605 1425,-611 1425,-611 1425,-663 1425,-663 1425,-669 1419,-675 1413,-675 1413,-675 1301,-675 1301,-675 1295,-675 1289,-669 1289,-663 1289,-663 1289,-611 1289,-611 1289,-605 1295,-599 1301,-599"/>
<text text-anchor="middle" x="1357" y="-659.8" font-family="Times,serif" font-size="14.00">Country</text>
<polyline fill="none" stroke="black" points="1289,-652 1425,-652 "/>
<text text-anchor="start" x="1297" y="-636.8" font-family="Times,serif" font-size="14.00">id :integer</text>
<text text-anchor="start" x="1297" y="-621.8" font-family="Times,serif" font-size="14.00">name :string</text>
<text text-anchor="start" x="1297" y="-606.8" font-family="Times,serif" font-size="14.00">currency_code :string</text>
</g>
<!-- PaymentMethod -->
<g id="node8" class="node"><title>PaymentMethod</title>
<path fill="none" stroke="black" d="M1455.5,-599C1455.5,-599 1540.5,-599 1540.5,-599 1546.5,-599 1552.5,-605 1552.5,-611 1552.5,-611 1552.5,-663 1552.5,-663 1552.5,-669 1546.5,-675 1540.5,-675 1540.5,-675 1455.5,-675 1455.5,-675 1449.5,-675 1443.5,-669 1443.5,-663 1443.5,-663 1443.5,-611 1443.5,-611 1443.5,-605 1449.5,-599 1455.5,-599"/>
<text text-anchor="middle" x="1498" y="-659.8" font-family="Times,serif" font-size="14.00">PaymentMethod</text>
<polyline fill="none" stroke="black" points="1443.5,-652 1552.5,-652 "/>
<text text-anchor="start" x="1451.5" y="-636.8" font-family="Times,serif" font-size="14.00">id :integer</text>
<text text-anchor="start" x="1451.5" y="-621.8" font-family="Times,serif" font-size="14.00">name :string</text>
<text text-anchor="start" x="1451.5" y="-606.8" font-family="Times,serif" font-size="14.00">slug :string</text>
</g>
<!-- ServiceProvider -->
<g id="node9" class="node"><title>ServiceProvider</title>
<path fill="none" stroke="black" d="M510.5,-576.5C510.5,-576.5 631.5,-576.5 631.5,-576.5 637.5,-576.5 643.5,-582.5 643.5,-588.5 643.5,-588.5 643.5,-685.5 643.5,-685.5 643.5,-691.5 637.5,-697.5 631.5,-697.5 631.5,-697.5 510.5,-697.5 510.5,-697.5 504.5,-697.5 498.5,-691.5 498.5,-685.5 498.5,-685.5 498.5,-588.5 498.5,-588.5 498.5,-582.5 504.5,-576.5 510.5,-576.5"/>
<text text-anchor="middle" x="571" y="-682.3" font-family="Times,serif" font-size="14.00">ServiceProvider</text>
<polyline fill="none" stroke="black" points="498.5,-674.5 643.5,-674.5 "/>
<text text-anchor="start" x="506.5" y="-659.3" font-family="Times,serif" font-size="14.00">id :integer</text>
<text text-anchor="start" x="506.5" y="-644.3" font-family="Times,serif" font-size="14.00">name :string</text>
<text text-anchor="start" x="506.5" y="-629.3" font-family="Times,serif" font-size="14.00">landing_page :string</text>
<text text-anchor="start" x="506.5" y="-614.3" font-family="Times,serif" font-size="14.00">slug :string</text>
<text text-anchor="start" x="506.5" y="-599.3" font-family="Times,serif" font-size="14.00">created_by_id :integer</text>
<text text-anchor="start" x="506.5" y="-584.3" font-family="Times,serif" font-size="14.00">created_by_type :string</text>
</g>
<!-- ServiceProvider&#45;&gt;User::RecentTransaction -->
<g id="edge7" class="edge"><title>ServiceProvider&#45;&gt;User::RecentTransaction</title>
<path fill="none" stroke="#9c5ad2" d="M549.928,-568.34C534.393,-518.456 512.595,-448.466 492.73,-384.681"/>
<ellipse fill="none" stroke="#9c5ad2" cx="551.198" cy="-572.418" rx="4.00001" ry="4.00001"/>
<polygon fill="#9c5ad2" stroke="#9c5ad2" points="492.661,-384.458 493.984,-373.572 491.174,-379.684 489.687,-374.91 489.687,-374.91 489.687,-374.91 491.174,-379.684 485.391,-376.248 492.661,-384.458 492.661,-384.458"/>
<text text-anchor="middle" x="555.5" y="-396.8" font-family="Times,serif" font-size="14.00">recent_transactions</text>
</g>
<!-- ServiceProvider&#45;&gt;Feedback -->
<g id="edge6" class="edge"><title>ServiceProvider&#45;&gt;Feedback</title>
<path fill="none" stroke="#d6ef00" d="M588.499,-568.15C606.165,-499.654 633.571,-393.388 653.205,-317.264"/>
<ellipse fill="none" stroke="#d6ef00" cx="587.412" cy="-572.364" rx="4.00001" ry="4.00001"/>
<polygon fill="#d6ef00" stroke="#d6ef00" points="653.303,-316.882 660.158,-308.322 654.552,-312.04 655.8,-307.199 655.8,-307.199 655.8,-307.199 654.552,-312.04 651.443,-306.075 653.303,-316.882 653.303,-316.882"/>
</g>
</g>
</svg>
