<?xml version="1.0" encoding="UTF-8" standalone="no"?>
<!DOCTYPE svg PUBLIC "-//W3C//DTD SVG 1.1//EN"
 "http://www.w3.org/Graphics/SVG/1.1/DTD/svg11.dtd">
<!-- Generated by graphviz version 2.38.0 (20140413.2041)
 -->
<!-- Title: models_diagram Pages: 1 -->
<svg width="1779pt" height="991pt"
 viewBox="0.00 0.00 1778.50 991.00" xmlns="http://www.w3.org/2000/svg" xmlns:xlink="http://www.w3.org/1999/xlink">
<g id="graph0" class="graph" transform="scale(1 1) rotate(0) translate(4 987)">
<title>models_diagram</title>
<polygon fill="white" stroke="none" points="-4,4 -4,-987 1774.5,-987 1774.5,4 -4,4"/>
<!-- Admin -->
<g id="node1" class="node"><title>Admin</title>
<path fill="none" stroke="black" d="M12,-621.5C12,-621.5 182,-621.5 182,-621.5 188,-621.5 194,-627.5 194,-633.5 194,-633.5 194,-805.5 194,-805.5 194,-811.5 188,-817.5 182,-817.5 182,-817.5 12,-817.5 12,-817.5 6,-817.5 0,-811.5 0,-805.5 0,-805.5 0,-633.5 0,-633.5 0,-627.5 6,-621.5 12,-621.5"/>
<text text-anchor="middle" x="97" y="-802.3" font-family="Times,serif" font-size="14.00">Admin</text>
<polyline fill="none" stroke="black" points="0,-794.5 194,-794.5 "/>
<text text-anchor="start" x="8" y="-779.3" font-family="Times,serif" font-size="14.00">id :integer</text>
<text text-anchor="start" x="8" y="-764.3" font-family="Times,serif" font-size="14.00">email :string</text>
<text text-anchor="start" x="8" y="-749.3" font-family="Times,serif" font-size="14.00">encrypted_password :string</text>
<text text-anchor="start" x="8" y="-734.3" font-family="Times,serif" font-size="14.00">remember_created_at :datetime</text>
<text text-anchor="start" x="8" y="-719.3" font-family="Times,serif" font-size="14.00">sign_in_count :integer</text>
<text text-anchor="start" x="8" y="-704.3" font-family="Times,serif" font-size="14.00">current_sign_in_at :datetime</text>
<text text-anchor="start" x="8" y="-689.3" font-family="Times,serif" font-size="14.00">last_sign_in_at :datetime</text>
<text text-anchor="start" x="8" y="-674.3" font-family="Times,serif" font-size="14.00">current_sign_in_ip :inet</text>
<text text-anchor="start" x="8" y="-659.3" font-family="Times,serif" font-size="14.00">last_sign_in_ip :inet</text>
<text text-anchor="start" x="8" y="-644.3" font-family="Times,serif" font-size="14.00">created_at :datetime</text>
<text text-anchor="start" x="8" y="-629.3" font-family="Times,serif" font-size="14.00">updated_at :datetime</text>
</g>
<!-- User::Level -->
<g id="node2" class="node"><title>User::Level</title>
<path fill="none" stroke="black" d="M224,-681.5C224,-681.5 286,-681.5 286,-681.5 292,-681.5 298,-687.5 298,-693.5 298,-693.5 298,-745.5 298,-745.5 298,-751.5 292,-757.5 286,-757.5 286,-757.5 224,-757.5 224,-757.5 218,-757.5 212,-751.5 212,-745.5 212,-745.5 212,-693.5 212,-693.5 212,-687.5 218,-681.5 224,-681.5"/>
<text text-anchor="middle" x="255" y="-742.3" font-family="Times,serif" font-size="14.00">User::Level</text>
<polyline fill="none" stroke="black" points="212,-734.5 298,-734.5 "/>
<text text-anchor="start" x="220" y="-719.3" font-family="Times,serif" font-size="14.00">id :integer</text>
<text text-anchor="start" x="220" y="-704.3" font-family="Times,serif" font-size="14.00">name :string</text>
<text text-anchor="start" x="220" y="-689.3" font-family="Times,serif" font-size="14.00">slug :string</text>
</g>
<!-- User::InputError -->
<g id="node3" class="node"><title>User::InputError</title>
<path fill="none" stroke="black" d="M328,-674C328,-674 414,-674 414,-674 420,-674 426,-680 426,-686 426,-686 426,-753 426,-753 426,-759 420,-765 414,-765 414,-765 328,-765 328,-765 322,-765 316,-759 316,-753 316,-753 316,-686 316,-686 316,-680 322,-674 328,-674"/>
<text text-anchor="middle" x="371" y="-749.8" font-family="Times,serif" font-size="14.00">User::InputError</text>
<polyline fill="none" stroke="black" points="316,-742 426,-742 "/>
<text text-anchor="start" x="324" y="-726.8" font-family="Times,serif" font-size="14.00">id :integer</text>
<text text-anchor="start" x="324" y="-711.8" font-family="Times,serif" font-size="14.00">user_id :integer</text>
<text text-anchor="start" x="324" y="-696.8" font-family="Times,serif" font-size="14.00">location :string</text>
<text text-anchor="start" x="324" y="-681.8" font-family="Times,serif" font-size="14.00">messages :string</text>
</g>
<!-- User::RecentTransaction -->
<g id="node4" class="node"><title>User::RecentTransaction</title>
<path fill="none" stroke="black" d="M267,-73.5C267,-73.5 511,-73.5 511,-73.5 517,-73.5 523,-79.5 523,-85.5 523,-85.5 523,-392.5 523,-392.5 523,-398.5 517,-404.5 511,-404.5 511,-404.5 267,-404.5 267,-404.5 261,-404.5 255,-398.5 255,-392.5 255,-392.5 255,-85.5 255,-85.5 255,-79.5 261,-73.5 267,-73.5"/>
<text text-anchor="middle" x="389" y="-389.3" font-family="Times,serif" font-size="14.00">User::RecentTransaction</text>
<polyline fill="none" stroke="black" points="255,-381.5 523,-381.5 "/>
<text text-anchor="start" x="263" y="-366.3" font-family="Times,serif" font-size="14.00">id :integer</text>
<text text-anchor="start" x="263" y="-351.3" font-family="Times,serif" font-size="14.00">user_id :integer</text>
<text text-anchor="start" x="263" y="-336.3" font-family="Times,serif" font-size="14.00">date :date</text>
<text text-anchor="start" x="263" y="-321.3" font-family="Times,serif" font-size="14.00">amount_sent_cents :integer</text>
<text text-anchor="start" x="263" y="-306.3" font-family="Times,serif" font-size="14.00">amount_received_cents :integer</text>
<text text-anchor="start" x="263" y="-291.3" font-family="Times,serif" font-size="14.00">originating_source_of_funds_id :integer</text>
<text text-anchor="start" x="263" y="-276.3" font-family="Times,serif" font-size="14.00">service_provider_id :integer</text>
<text text-anchor="start" x="263" y="-261.3" font-family="Times,serif" font-size="14.00">destination_preference_for_funds_id :integer</text>
<text text-anchor="start" x="263" y="-246.3" font-family="Times,serif" font-size="14.00">fees_for_receiving :string</text>
<text text-anchor="start" x="263" y="-231.3" font-family="Times,serif" font-size="14.00">send_to_receive_duration :integer</text>
<text text-anchor="start" x="263" y="-216.3" font-family="Times,serif" font-size="14.00">documentation_requirements :string</text>
<text text-anchor="start" x="263" y="-201.3" font-family="Times,serif" font-size="14.00">promotion :string</text>
<text text-anchor="start" x="263" y="-186.3" font-family="Times,serif" font-size="14.00">service_quality :integer</text>
<text text-anchor="start" x="263" y="-171.3" font-family="Times,serif" font-size="14.00">comments :text</text>
<text text-anchor="start" x="263" y="-156.3" font-family="Times,serif" font-size="14.00">created_at :datetime</text>
<text text-anchor="start" x="263" y="-141.3" font-family="Times,serif" font-size="14.00">updated_at :datetime</text>
<text text-anchor="start" x="263" y="-126.3" font-family="Times,serif" font-size="14.00">currency :string</text>
<text text-anchor="start" x="263" y="-111.3" font-family="Times,serif" font-size="14.00">fees_for_sending_cents :integer</text>
<text text-anchor="start" x="263" y="-96.3" font-family="Times,serif" font-size="14.00">money_transfer_destination_id :integer</text>
<text text-anchor="start" x="263" y="-81.3" font-family="Times,serif" font-size="14.00">send_to_receive_duration_interval :string</text>
</g>
<!-- User::Feedback -->
<g id="node13" class="node"><title>User::Feedback</title>
<ellipse fill="none" stroke="black" cx="389" cy="-18" rx="65.7887" ry="18"/>
<text text-anchor="middle" x="389" y="-14.3" font-family="Times,serif" font-size="14.00">User::Feedback</text>
</g>
<!-- User::RecentTransaction&#45;&gt;User::Feedback -->
<g id="edge1" class="edge"><title>User::RecentTransaction&#45;&gt;User::Feedback</title>
<path fill="none" stroke="#d34136" d="M389,-65.3726C389,-57.7684 389,-50.781 389,-44.6628"/>
<ellipse fill="none" stroke="#d34136" cx="389" cy="-69.4162" rx="4" ry="4"/>
<ellipse fill="#d34136" stroke="#d34136" cx="389" cy="-40.3504" rx="4" ry="4"/>
</g>
<!-- User::NextTransfer -->
<g id="node5" class="node"><title>User::NextTransfer</title>
<path fill="none" stroke="black" d="M1019,-629C1019,-629 1263,-629 1263,-629 1269,-629 1275,-635 1275,-641 1275,-641 1275,-798 1275,-798 1275,-804 1269,-810 1263,-810 1263,-810 1019,-810 1019,-810 1013,-810 1007,-804 1007,-798 1007,-798 1007,-641 1007,-641 1007,-635 1013,-629 1019,-629"/>
<text text-anchor="middle" x="1141" y="-794.8" font-family="Times,serif" font-size="14.00">User::NextTransfer</text>
<polyline fill="none" stroke="black" points="1007,-787 1275,-787 "/>
<text text-anchor="start" x="1015" y="-771.8" font-family="Times,serif" font-size="14.00">id :integer</text>
<text text-anchor="start" x="1015" y="-756.8" font-family="Times,serif" font-size="14.00">user_id :integer</text>
<text text-anchor="start" x="1015" y="-741.8" font-family="Times,serif" font-size="14.00">amount_send_cents :integer</text>
<text text-anchor="start" x="1015" y="-726.8" font-family="Times,serif" font-size="14.00">amount_receive_cents :integer</text>
<text text-anchor="start" x="1015" y="-711.8" font-family="Times,serif" font-size="14.00">receive_currency :string</text>
<text text-anchor="start" x="1015" y="-696.8" font-family="Times,serif" font-size="14.00">originating_source_of_funds_id :integer</text>
<text text-anchor="start" x="1015" y="-681.8" font-family="Times,serif" font-size="14.00">destination_preference_for_funds_id :integer</text>
<text text-anchor="start" x="1015" y="-666.8" font-family="Times,serif" font-size="14.00">created_at :datetime</text>
<text text-anchor="start" x="1015" y="-651.8" font-family="Times,serif" font-size="14.00">updated_at :datetime</text>
<text text-anchor="start" x="1015" y="-636.8" font-family="Times,serif" font-size="14.00">money_transfer_destination_id :integer</text>
</g>
<!-- Referral -->
<g id="node6" class="node"><title>Referral</title>
<path fill="none" stroke="black" d="M735,-178.5C735,-178.5 843,-178.5 843,-178.5 849,-178.5 855,-184.5 855,-190.5 855,-190.5 855,-287.5 855,-287.5 855,-293.5 849,-299.5 843,-299.5 843,-299.5 735,-299.5 735,-299.5 729,-299.5 723,-293.5 723,-287.5 723,-287.5 723,-190.5 723,-190.5 723,-184.5 729,-178.5 735,-178.5"/>
<text text-anchor="middle" x="789" y="-284.3" font-family="Times,serif" font-size="14.00">Referral</text>
<polyline fill="none" stroke="black" points="723,-276.5 855,-276.5 "/>
<text text-anchor="start" x="731" y="-261.3" font-family="Times,serif" font-size="14.00">id :integer</text>
<text text-anchor="start" x="731" y="-246.3" font-family="Times,serif" font-size="14.00">user_id :integer</text>
<text text-anchor="start" x="731" y="-231.3" font-family="Times,serif" font-size="14.00">email :string</text>
<text text-anchor="start" x="731" y="-216.3" font-family="Times,serif" font-size="14.00">created_at :datetime</text>
<text text-anchor="start" x="731" y="-201.3" font-family="Times,serif" font-size="14.00">updated_at :datetime</text>
<text text-anchor="start" x="731" y="-186.3" font-family="Times,serif" font-size="14.00">comments :string</text>
</g>
<!-- PaymentMethod -->
<g id="node7" class="node"><title>PaymentMethod</title>
<path fill="none" stroke="black" d="M1305.5,-681.5C1305.5,-681.5 1390.5,-681.5 1390.5,-681.5 1396.5,-681.5 1402.5,-687.5 1402.5,-693.5 1402.5,-693.5 1402.5,-745.5 1402.5,-745.5 1402.5,-751.5 1396.5,-757.5 1390.5,-757.5 1390.5,-757.5 1305.5,-757.5 1305.5,-757.5 1299.5,-757.5 1293.5,-751.5 1293.5,-745.5 1293.5,-745.5 1293.5,-693.5 1293.5,-693.5 1293.5,-687.5 1299.5,-681.5 1305.5,-681.5"/>
<text text-anchor="middle" x="1348" y="-742.3" font-family="Times,serif" font-size="14.00">PaymentMethod</text>
<polyline fill="none" stroke="black" points="1293.5,-734.5 1402.5,-734.5 "/>
<text text-anchor="start" x="1301.5" y="-719.3" font-family="Times,serif" font-size="14.00">id :integer</text>
<text text-anchor="start" x="1301.5" y="-704.3" font-family="Times,serif" font-size="14.00">name :string</text>
<text text-anchor="start" x="1301.5" y="-689.3" font-family="Times,serif" font-size="14.00">slug :string</text>
</g>
<!-- Country -->
<g id="node8" class="node"><title>Country</title>
<path fill="none" stroke="black" d="M1433,-681.5C1433,-681.5 1545,-681.5 1545,-681.5 1551,-681.5 1557,-687.5 1557,-693.5 1557,-693.5 1557,-745.5 1557,-745.5 1557,-751.5 1551,-757.5 1545,-757.5 1545,-757.5 1433,-757.5 1433,-757.5 1427,-757.5 1421,-751.5 1421,-745.5 1421,-745.5 1421,-693.5 1421,-693.5 1421,-687.5 1427,-681.5 1433,-681.5"/>
<text text-anchor="middle" x="1489" y="-742.3" font-family="Times,serif" font-size="14.00">Country</text>
<polyline fill="none" stroke="black" points="1421,-734.5 1557,-734.5 "/>
<text text-anchor="start" x="1429" y="-719.3" font-family="Times,serif" font-size="14.00">id :integer</text>
<text text-anchor="start" x="1429" y="-704.3" font-family="Times,serif" font-size="14.00">name :string</text>
<text text-anchor="start" x="1429" y="-689.3" font-family="Times,serif" font-size="14.00">currency_code :string</text>
</g>
<!-- Feedback -->
<g id="node9" class="node"><title>Feedback</title>
<path fill="none" stroke="black" d="M553.5,-156C553.5,-156 692.5,-156 692.5,-156 698.5,-156 704.5,-162 704.5,-168 704.5,-168 704.5,-310 704.5,-310 704.5,-316 698.5,-322 692.5,-322 692.5,-322 553.5,-322 553.5,-322 547.5,-322 541.5,-316 541.5,-310 541.5,-310 541.5,-168 541.5,-168 541.5,-162 547.5,-156 553.5,-156"/>
<text text-anchor="middle" x="623" y="-306.8" font-family="Times,serif" font-size="14.00">Feedback</text>
<polyline fill="none" stroke="black" points="541.5,-299 704.5,-299 "/>
<text text-anchor="start" x="549.5" y="-283.8" font-family="Times,serif" font-size="14.00">id :integer</text>
<text text-anchor="start" x="549.5" y="-268.8" font-family="Times,serif" font-size="14.00">comments :string</text>
<text text-anchor="start" x="549.5" y="-253.8" font-family="Times,serif" font-size="14.00">service_quality :integer</text>
<text text-anchor="start" x="549.5" y="-238.8" font-family="Times,serif" font-size="14.00">user_id :integer</text>
<text text-anchor="start" x="549.5" y="-223.8" font-family="Times,serif" font-size="14.00">commendable_id :integer</text>
<text text-anchor="start" x="549.5" y="-208.8" font-family="Times,serif" font-size="14.00">commendable_type :string</text>
<text text-anchor="start" x="549.5" y="-193.8" font-family="Times,serif" font-size="14.00">approved :boolean</text>
<text text-anchor="start" x="549.5" y="-178.8" font-family="Times,serif" font-size="14.00">created_at :datetime</text>
<text text-anchor="start" x="549.5" y="-163.8" font-family="Times,serif" font-size="14.00">updated_at :datetime</text>
</g>
<!-- RemittanceTerm -->
<g id="node10" class="node"><title>RemittanceTerm</title>
<path fill="none" stroke="black" d="M1587.5,-591.5C1587.5,-591.5 1758.5,-591.5 1758.5,-591.5 1764.5,-591.5 1770.5,-597.5 1770.5,-603.5 1770.5,-603.5 1770.5,-835.5 1770.5,-835.5 1770.5,-841.5 1764.5,-847.5 1758.5,-847.5 1758.5,-847.5 1587.5,-847.5 1587.5,-847.5 1581.5,-847.5 1575.5,-841.5 1575.5,-835.5 1575.5,-835.5 1575.5,-603.5 1575.5,-603.5 1575.5,-597.5 1581.5,-591.5 1587.5,-591.5"/>
<text text-anchor="middle" x="1673" y="-832.3" font-family="Times,serif" font-size="14.00">RemittanceTerm</text>
<polyline fill="none" stroke="black" points="1575.5,-824.5 1770.5,-824.5 "/>
<text text-anchor="start" x="1583.5" y="-809.3" font-family="Times,serif" font-size="14.00">id :integer</text>
<text text-anchor="start" x="1583.5" y="-794.3" font-family="Times,serif" font-size="14.00">receive_country_id :integer</text>
<text text-anchor="start" x="1583.5" y="-779.3" font-family="Times,serif" font-size="14.00">service_provider_id :integer</text>
<text text-anchor="start" x="1583.5" y="-764.3" font-family="Times,serif" font-size="14.00">send_method_id :integer</text>
<text text-anchor="start" x="1583.5" y="-749.3" font-family="Times,serif" font-size="14.00">receive_method_id :integer</text>
<text text-anchor="start" x="1583.5" y="-734.3" font-family="Times,serif" font-size="14.00">receive_currency :string</text>
<text text-anchor="start" x="1583.5" y="-719.3" font-family="Times,serif" font-size="14.00">send_amount_range_from :float</text>
<text text-anchor="start" x="1583.5" y="-704.3" font-family="Times,serif" font-size="14.00">send_amount_range_to :float</text>
<text text-anchor="start" x="1583.5" y="-689.3" font-family="Times,serif" font-size="14.00">fees_for_sending_cents :integer</text>
<text text-anchor="start" x="1583.5" y="-674.3" font-family="Times,serif" font-size="14.00">fees_for_sending_percent :float</text>
<text text-anchor="start" x="1583.5" y="-659.3" font-family="Times,serif" font-size="14.00">fx_markup :float</text>
<text text-anchor="start" x="1583.5" y="-644.3" font-family="Times,serif" font-size="14.00">duration :string</text>
<text text-anchor="start" x="1583.5" y="-629.3" font-family="Times,serif" font-size="14.00">documentation :text</text>
<text text-anchor="start" x="1583.5" y="-614.3" font-family="Times,serif" font-size="14.00">promotions :string</text>
<text text-anchor="start" x="1583.5" y="-599.3" font-family="Times,serif" font-size="14.00">service_quality :integer</text>
</g>
<!-- ServiceProvider -->
<g id="node11" class="node"><title>ServiceProvider</title>
<path fill="none" stroke="black" d="M456.5,-659C456.5,-659 577.5,-659 577.5,-659 583.5,-659 589.5,-665 589.5,-671 589.5,-671 589.5,-768 589.5,-768 589.5,-774 583.5,-780 577.5,-780 577.5,-780 456.5,-780 456.5,-780 450.5,-780 444.5,-774 444.5,-768 444.5,-768 444.5,-671 444.5,-671 444.5,-665 450.5,-659 456.5,-659"/>
<text text-anchor="middle" x="517" y="-764.8" font-family="Times,serif" font-size="14.00">ServiceProvider</text>
<polyline fill="none" stroke="black" points="444.5,-757 589.5,-757 "/>
<text text-anchor="start" x="452.5" y="-741.8" font-family="Times,serif" font-size="14.00">id :integer</text>
<text text-anchor="start" x="452.5" y="-726.8" font-family="Times,serif" font-size="14.00">name :string</text>
<text text-anchor="start" x="452.5" y="-711.8" font-family="Times,serif" font-size="14.00">landing_page :string</text>
<text text-anchor="start" x="452.5" y="-696.8" font-family="Times,serif" font-size="14.00">slug :string</text>
<text text-anchor="start" x="452.5" y="-681.8" font-family="Times,serif" font-size="14.00">created_by_id :integer</text>
<text text-anchor="start" x="452.5" y="-666.8" font-family="Times,serif" font-size="14.00">created_by_type :string</text>
</g>
<!-- ServiceProvider&#45;&gt;User::RecentTransaction -->
<g id="edge3" class="edge"><title>ServiceProvider&#45;&gt;User::RecentTransaction</title>
<path fill="none" stroke="#459155" d="M498.911,-650.878C482.524,-589.62 457.659,-496.668 435.722,-414.66"/>
<ellipse fill="none" stroke="#459155" cx="500.014" cy="-655.001" rx="4.00001" ry="4.00001"/>
<polygon fill="#459155" stroke="#459155" points="435.646,-414.377 437.409,-403.553 434.354,-409.547 433.062,-404.716 433.062,-404.716 433.062,-404.716 434.354,-409.547 428.715,-405.879 435.646,-414.377 435.646,-414.377"/>
<text text-anchor="middle" x="497.5" y="-426.8" font-family="Times,serif" font-size="14.00">recent_transactions</text>
</g>
<!-- ServiceProvider&#45;&gt;Feedback -->
<g id="edge2" class="edge"><title>ServiceProvider&#45;&gt;Feedback</title>
<path fill="none" stroke="#703d14" d="M531.962,-650.96C550.433,-567.579 581.932,-425.386 602.606,-332.061"/>
<ellipse fill="none" stroke="#703d14" cx="531.076" cy="-654.96" rx="4.00001" ry="4.00001"/>
<polygon fill="#703d14" stroke="#703d14" points="602.659,-331.823 609.215,-323.033 603.74,-326.941 604.822,-322.059 604.822,-322.059 604.822,-322.059 603.74,-326.941 600.428,-321.086 602.659,-331.823 602.659,-331.823"/>
</g>
<!-- User -->
<g id="node12" class="node"><title>User</title>
<path fill="none" stroke="black" d="M765,-456.5C765,-456.5 977,-456.5 977,-456.5 983,-456.5 989,-462.5 989,-468.5 989,-468.5 989,-970.5 989,-970.5 989,-976.5 983,-982.5 977,-982.5 977,-982.5 765,-982.5 765,-982.5 759,-982.5 753,-976.5 753,-970.5 753,-970.5 753,-468.5 753,-468.5 753,-462.5 759,-456.5 765,-456.5"/>
<text text-anchor="middle" x="871" y="-967.3" font-family="Times,serif" font-size="14.00">User</text>
<polyline fill="none" stroke="black" points="753,-959.5 989,-959.5 "/>
<text text-anchor="start" x="761" y="-944.3" font-family="Times,serif" font-size="14.00">id :integer</text>
<text text-anchor="start" x="761" y="-929.3" font-family="Times,serif" font-size="14.00">email :string</text>
<text text-anchor="start" x="761" y="-914.3" font-family="Times,serif" font-size="14.00">encrypted_password :string</text>
<text text-anchor="start" x="761" y="-899.3" font-family="Times,serif" font-size="14.00">reset_password_token :string</text>
<text text-anchor="start" x="761" y="-884.3" font-family="Times,serif" font-size="14.00">reset_password_sent_at :datetime</text>
<text text-anchor="start" x="761" y="-869.3" font-family="Times,serif" font-size="14.00">remember_created_at :datetime</text>
<text text-anchor="start" x="761" y="-854.3" font-family="Times,serif" font-size="14.00">sign_in_count :integer</text>
<text text-anchor="start" x="761" y="-839.3" font-family="Times,serif" font-size="14.00">current_sign_in_at :datetime</text>
<text text-anchor="start" x="761" y="-824.3" font-family="Times,serif" font-size="14.00">last_sign_in_at :datetime</text>
<text text-anchor="start" x="761" y="-809.3" font-family="Times,serif" font-size="14.00">current_sign_in_ip :inet</text>
<text text-anchor="start" x="761" y="-794.3" font-family="Times,serif" font-size="14.00">last_sign_in_ip :inet</text>
<text text-anchor="start" x="761" y="-779.3" font-family="Times,serif" font-size="14.00">confirmation_token :string</text>
<text text-anchor="start" x="761" y="-764.3" font-family="Times,serif" font-size="14.00">confirmed_at :datetime</text>
<text text-anchor="start" x="761" y="-749.3" font-family="Times,serif" font-size="14.00">confirmation_sent_at :datetime</text>
<text text-anchor="start" x="761" y="-734.3" font-family="Times,serif" font-size="14.00">unconfirmed_email :string</text>
<text text-anchor="start" x="761" y="-719.3" font-family="Times,serif" font-size="14.00">failed_attempts :integer</text>
<text text-anchor="start" x="761" y="-704.3" font-family="Times,serif" font-size="14.00">unlock_token :string</text>
<text text-anchor="start" x="761" y="-689.3" font-family="Times,serif" font-size="14.00">locked_at :datetime</text>
<text text-anchor="start" x="761" y="-674.3" font-family="Times,serif" font-size="14.00">first_name :string</text>
<text text-anchor="start" x="761" y="-659.3" font-family="Times,serif" font-size="14.00">last_name :string</text>
<text text-anchor="start" x="761" y="-644.3" font-family="Times,serif" font-size="14.00">zipcode :string</text>
<text text-anchor="start" x="761" y="-629.3" font-family="Times,serif" font-size="14.00">money_transfer_destination_id :integer</text>
<text text-anchor="start" x="761" y="-614.3" font-family="Times,serif" font-size="14.00">created_at :datetime</text>
<text text-anchor="start" x="761" y="-599.3" font-family="Times,serif" font-size="14.00">updated_at :datetime</text>
<text text-anchor="start" x="761" y="-584.3" font-family="Times,serif" font-size="14.00">provider :string</text>
<text text-anchor="start" x="761" y="-569.3" font-family="Times,serif" font-size="14.00">uid :string</text>
<text text-anchor="start" x="761" y="-554.3" font-family="Times,serif" font-size="14.00">phone :string</text>
<text text-anchor="start" x="761" y="-539.3" font-family="Times,serif" font-size="14.00">accept_terms :boolean</text>
<text text-anchor="start" x="761" y="-524.3" font-family="Times,serif" font-size="14.00">accept_emails :boolean</text>
<text text-anchor="start" x="761" y="-509.3" font-family="Times,serif" font-size="14.00">level_id :integer</text>
<text text-anchor="start" x="761" y="-494.3" font-family="Times,serif" font-size="14.00">points :integer</text>
<text text-anchor="start" x="761" y="-479.3" font-family="Times,serif" font-size="14.00">about_me :string</text>
<text text-anchor="start" x="761" y="-464.3" font-family="Times,serif" font-size="14.00">avatar :string</text>
</g>
<!-- User&#45;&gt;Referral -->
<g id="edge7" class="edge"><title>User&#45;&gt;Referral</title>
<path fill="none" stroke="#7aed9d" d="M824.686,-448.244C815.923,-397.108 807.49,-347.894 801.023,-310.16"/>
<ellipse fill="none" stroke="#7aed9d" cx="825.366" cy="-452.209" rx="4.00001" ry="4.00001"/>
<polygon fill="#7aed9d" stroke="#7aed9d" points="800.942,-309.685 803.688,-299.069 800.097,-304.757 799.253,-299.829 799.253,-299.829 799.253,-299.829 800.097,-304.757 794.817,-300.589 800.942,-309.685 800.942,-309.685"/>
</g>
<!-- User&#45;&gt;Feedback -->
<g id="edge6" class="edge"><title>User&#45;&gt;Feedback</title>
<path fill="none" stroke="#78a294" d="M749.141,-483.381C721.112,-429.3 692.936,-374.937 670.346,-331.351"/>
<ellipse fill="none" stroke="#78a294" cx="751.151" cy="-487.26" rx="4.00002" ry="4.00002"/>
<polygon fill="#78a294" stroke="#78a294" points="670.214,-331.096 669.607,-320.147 667.913,-326.657 665.612,-322.217 665.612,-322.217 665.612,-322.217 667.913,-326.657 661.617,-324.288 670.214,-331.096 670.214,-331.096"/>
</g>
<!-- RecentTransaction -->
<g id="node14" class="node"><title>RecentTransaction</title>
<ellipse fill="none" stroke="black" cx="953" cy="-239" rx="79.8859" ry="18"/>
<text text-anchor="middle" x="953" y="-235.3" font-family="Times,serif" font-size="14.00">RecentTransaction</text>
</g>
<!-- User&#45;&gt;RecentTransaction -->
<g id="edge4" class="edge"><title>User&#45;&gt;RecentTransaction</title>
<path fill="none" stroke="#68bf9e" d="M917.313,-448.246C930.032,-374.029 942.056,-303.859 948.38,-266.959"/>
<ellipse fill="none" stroke="#68bf9e" cx="916.634" cy="-452.209" rx="4.00001" ry="4.00001"/>
<polygon fill="#68bf9e" stroke="#68bf9e" points="948.392,-266.889 954.517,-257.792 949.237,-261.96 950.081,-257.032 950.081,-257.032 950.081,-257.032 949.237,-261.96 945.646,-256.272 948.392,-266.889 948.392,-266.889"/>
</g>
<!-- NextTransfer -->
<g id="node15" class="node"><title>NextTransfer</title>
<ellipse fill="none" stroke="black" cx="1111" cy="-239" rx="59.5901" ry="18"/>
<text text-anchor="middle" x="1111" y="-235.3" font-family="Times,serif" font-size="14.00">NextTransfer</text>
</g>
<!-- User&#45;&gt;NextTransfer -->
<g id="edge5" class="edge"><title>User&#45;&gt;NextTransfer</title>
<path fill="none" stroke="#ee6b81" d="M993.538,-462.882C995.019,-460.569 996.506,-458.274 998,-456 1014.44,-430.979 1026.25,-430.459 1042,-405 1070.13,-359.532 1091.63,-300.582 1102.7,-266.856"/>
<ellipse fill="none" stroke="#ee6b81" cx="991.257" cy="-466.492" rx="4.00002" ry="4.00002"/>
<polygon fill="#ee6b81" stroke="#ee6b81" points="1102.73,-266.761 1110.08,-258.621 1104.26,-262.001 1105.79,-257.242 1105.79,-257.242 1105.79,-257.242 1104.26,-262.001 1101.51,-255.863 1102.73,-266.761 1102.73,-266.761"/>
</g>
</g>
</svg>
